<?xml version="1.0" encoding="iso-8859-1"?>
<!-- Generator: Adobe Illustrator 19.0.0, SVG Export Plug-In . SVG Version: 6.00 Build 0)  -->
<svg version="1.1" id="Layer_1" xmlns="http://www.w3.org/2000/svg" xmlns:xlink="http://www.w3.org/1999/xlink" x="0px" y="0px"
	 viewBox="0 0 459.223 459.223" style="enable-background:new 0 0 459.223 459.223;" xml:space="preserve">
<g>
	<g>
		<path d="M232.435,312.903c-6.128-2.5-13.136,0.44-15.648,6.572l-41.392,101.292l-22.096-36.032
			c-2.668-4.352-7.76-6.536-12.784-5.452l-44.972,9.792l42.712-104.528c2.508-6.136-0.436-13.14-6.572-15.648
			c-6.132-2.5-13.136,0.436-15.648,6.568l-51.34,125.644c-1.684,4.124-0.948,8.84,1.92,12.256c2.864,3.412,7.384,4.948,11.74,4.008
			l58.94-12.832l30.02,48.952c2.196,3.58,6.08,5.728,10.228,5.728c0.324,0,0.648-0.012,0.972-0.036
			c4.508-0.364,8.424-3.232,10.136-7.42l50.352-123.216C241.515,322.419,238.571,315.411,232.435,312.903z"/>
	</g>
</g>
<g>
	<g>
		<path d="M399.787,401.111l-54.604-133.632c-2.512-6.136-9.516-9.076-15.648-6.572c-6.14,2.508-9.08,9.512-6.572,15.648
			l45.972,112.516l-44.972-9.792c-5.016-1.076-10.112,1.104-12.784,5.452l-22.096,36.032l-39.76-97.304
			c-2.512-6.136-9.516-9.072-15.648-6.572c-6.14,2.508-9.08,9.512-6.572,15.648l48.72,119.228c1.712,4.184,5.628,7.052,10.136,7.42
			c0.328,0.028,0.652,0.04,0.976,0.04c4.148,0,8.028-2.152,10.228-5.728l30.024-48.952l58.936,12.832
			c4.364,0.936,8.88-0.596,11.744-4.008S401.471,405.235,399.787,401.111z"/>
	</g>
</g>
<g>
	<g>
		<path d="M397.543,168.127l-21.608-29.652l7.36-35.944c1.096-5.348-1.556-10.756-6.456-13.172l-32.912-16.212l-10.188-35.252
			c-1.512-5.248-6.372-8.908-11.836-8.664l-36.676,0.936L259.823,3.691c-3.776-3.936-9.736-4.828-14.508-2.172l-32.04,17.88
			l-34.792-11.64c-5.168-1.74-10.872,0.248-13.856,4.816l-20.064,30.724l-36.22,5.86c-5.388,0.876-9.508,5.276-10.028,10.708
			l-3.488,36.524l-29.348,22.028c-4.368,3.276-5.972,9.084-3.908,14.14l13.888,33.96l-15.752,33.132
			c-2.34,4.928-1.064,10.82,3.112,14.336l28.08,23.616l1.448,36.664c0.216,5.456,4.084,10.076,9.416,11.248l35.84,7.868
			l18.328,31.78c2.724,4.732,8.3,7.028,13.564,5.584l35.392-9.692l31,19.628c1.976,1.252,4.2,1.864,6.416,1.864
			c2.968,0,5.908-1.096,8.196-3.224l26.832-25.028l36.572,2.976c5.464,0.452,10.492-2.844,12.296-7.996l12.128-34.628l33.76-14.36
			c5.024-2.136,7.972-7.392,7.176-12.792l-5.356-36.296l23.224-28.412C400.591,178.559,400.759,172.539,397.543,168.127z
			 M351.963,200.115c-2.14,2.612-3.076,6.004-2.584,9.344l4.776,32.376l-30.112,12.804c-3.108,1.32-5.516,3.888-6.628,7.076
			l-10.816,30.888l-32.616-2.656c-3.352-0.272-6.688,0.884-9.156,3.188l-23.932,22.32l-27.648-17.508
			c-1.936-1.232-4.164-1.864-6.416-1.864c-1.06,0-2.124,0.14-3.168,0.44l-31.564,8.644l-16.348-28.348
			c-1.684-2.928-4.524-5.004-7.82-5.732l-31.964-7.016l-1.296-32.7c-0.136-3.372-1.68-6.532-4.264-8.708l-25.044-21.068
			l14.048-29.552c1.448-3.052,1.544-6.572,0.268-9.696l-12.388-30.288l26.176-19.644c2.7-2.028,4.424-5.096,4.744-8.456
			l3.112-32.576l32.3-5.228c3.332-0.54,6.284-2.46,8.128-5.284l17.896-27.404l31.032,10.384c3.208,1.068,6.712,0.744,9.656-0.9
			l28.572-15.948l22.656,23.616c2.336,2.436,5.472,3.832,8.968,3.688l32.712-0.836l9.084,31.436c0.94,3.24,3.196,5.94,6.228,7.432
			l29.356,14.46l-6.568,32.06c-0.672,3.304,0.072,6.744,2.06,9.472l19.272,26.444L351.963,200.115z"/>
	</g>
</g>
<g>
	<g>
		<path d="M227.191,61.275c-59.552,0-108,48.448-108,108s48.448,108,108,108c59.552,0,108-48.448,108-108
			S286.743,61.275,227.191,61.275z M227.191,261.275c-50.732,0-92-41.268-92-92s41.268-92,92-92c50.732,0,92,41.272,92,92
			C319.191,220.007,277.923,261.275,227.191,261.275z"/>
	</g>
</g>
<g>
	<g>
		<path d="M295.227,148.719c-0.94-2.892-3.444-5.008-6.46-5.444l-36.28-5.268l-16.228-32.88c-1.352-2.728-4.128-4.46-7.176-4.46
			s-5.824,1.728-7.176,4.46l-16.228,32.88l-36.28,5.268c-3.016,0.436-5.52,2.548-6.46,5.444s-0.156,6.076,2.024,8.2l26.256,25.596
			l-6.2,36.136c-0.512,3,0.724,6.036,3.184,7.824c1.396,1.012,3.048,1.528,4.704,1.528c1.272,0,2.552-0.304,3.728-0.92
			l32.452-17.064l32.452,17.064c2.696,1.416,5.956,1.18,8.424-0.608c2.46-1.788,3.696-4.824,3.184-7.824l-6.2-36.136l26.256-25.592
			C295.383,154.795,296.167,151.615,295.227,148.719z M252.759,173.991c-1.884,1.84-2.74,4.488-2.3,7.084l4.172,24.304
			l-21.828-11.476c-2.328-1.228-5.116-1.228-7.444,0l-21.828,11.476l4.168-24.304c0.444-2.596-0.416-5.244-2.3-7.08l-17.66-17.22
			l24.396-3.544c2.608-0.38,4.86-2.016,6.028-4.38l10.916-22.116l10.912,22.116c1.168,2.364,3.424,4,6.028,4.38l24.404,3.544
			L252.759,173.991z"/>
	</g>
</g>
<g>
</g>
<g>
</g>
<g>
</g>
<g>
</g>
<g>
</g>
<g>
</g>
<g>
</g>
<g>
</g>
<g>
</g>
<g>
</g>
<g>
</g>
<g>
</g>
<g>
</g>
<g>
</g>
<g>
</g>
</svg>
